<svg id="logo-atrema" data-name="Logo Ätrema" xmlns="http://www.w3.org/2000/svg" viewBox="0 0 595.28 200.95">
    <defs>
        <style>.cls-1{fill:#000f9f;}</style>
    </defs>
    <path class="cls-1" d="M92.16,152.56H56.26l-7,17.21H31.18l43-97.12,43,97.12H99.17ZM53.31,59.74a8.42,8.42,0,1,1,8.48,8.48A8.47,8.47,0,0,1,53.31,59.74ZM86,137.56l-11.8-28.77-11.8,28.77Z" />
    <path class="cls-1" d="M150.06,91.09H125.72v-16h64.54v16H166v78.68h-16Z" />
    <path class="cls-1" d="M257.26,169.77l-19.43-35H223.69v35h-16V75.11H243c16.36,0,29.76,12,29.76,29.75,0,13.52-7.63,23.73-18.57,27.9l21.52,37Zm-33.57-51h18.08c8.85,0,15-4.92,15-13.89s-6.14-13.77-15-13.77H223.69Z" />
    <polygon class="cls-1" points="293.15 75.11 352.16 75.11 352.16 91.09 309.13 91.09 309.13 114.45 347.24 114.45 347.24 130.43 309.13 130.43 309.13 153.79 352.16 153.79 352.16 169.77 293.15 169.77 293.15 75.11" />
    <path class="cls-1" d="M372.93,72.65l45,62.2,45-62.2v97.12H447.06V121.21l-29.13,40.2-29-40.2v48.56h-16Z" />
    <path class="cls-1" d="M539,152.56H503.12l-7,17.21H478l43-97.12,43,97.12H546Zm-6.14-15-11.8-28.77-11.81,28.77Z" />
    <rect class="cls-1" x="78.96" y="52.13" width="15.34" height="15.34" />
    <polygon class="cls-1" points="341.24 38.85 327.95 46.52 314.67 54.19 322.34 67.47 335.62 59.8 348.9 52.13 362.19 44.46 354.52 31.18 341.24 38.85" />
</svg>
